<?xml version="1.0" standalone="no"?>
<!DOCTYPE svg PUBLIC "-//W3C//DTD SVG 20010904//EN"
 "http://www.w3.org/TR/2001/REC-SVG-20010904/DTD/svg10.dtd">
<svg version="1.0" xmlns="http://www.w3.org/2000/svg"
 width="700.000000pt" height="700.000000pt" viewBox="0 0 700.000000 700.000000"
 preserveAspectRatio="xMidYMid meet">
<metadata>
Created by potrace 1.11, written by Peter Selinger 2001-2013
</metadata>
<g transform="translate(0.000000,700.000000) scale(0.100000,-0.100000)"
fill="#000000" stroke="none">
<path d="M1207 6290 c-120 -175 -217 -316 -224 -325 -5 -5 -37 -53 -73 -105
-35 -52 -79 -117 -99 -145 -19 -27 -107 -156 -196 -285 -89 -129 -182 -264
-206 -300 -84 -121 -306 -445 -312 -456 -5 -8 182 -11 697 -11 l703 0 160 281
c88 154 288 504 443 776 156 272 294 515 308 540 13 25 28 49 33 54 29 32 9
33 -594 32 l-602 0 -38 -56z"/>
<path d="M2645 6308 c-14 -21 -25 -39 -25 -41 0 -4 -142 -255 -244 -429 -31
-53 -56 -102 -56 -107 0 -6 -4 -11 -10 -11 -5 0 -10 -4 -10 -9 0 -5 -50 -96
-111 -202 -61 -107 -125 -219 -141 -249 -17 -30 -34 -59 -38 -65 -4 -5 -21
-35 -38 -65 -16 -30 -82 -146 -146 -257 -64 -111 -116 -204 -116 -206 0 -3
799 -4 1775 -4 976 0 1775 1 1775 4 0 2 -53 97 -118 211 -66 114 -130 227
-144 252 -52 93 -129 226 -138 240 -5 8 -18 31 -28 50 -11 19 -81 143 -157
275 -76 132 -148 258 -160 280 -13 22 -46 80 -74 128 -28 49 -51 90 -51 92 0
1 -20 36 -44 76 l-45 74 -815 0 -816 1 -25 -38z"/>
<path d="M4520 6335 c0 -6 6 -19 14 -30 12 -18 476 -828 515 -900 8 -16 21
-37 27 -45 6 -8 24 -40 40 -70 16 -30 36 -66 45 -80 9 -14 83 -143 165 -286
l148 -261 723 0 c663 0 722 1 714 16 -8 14 -368 535 -451 651 -17 25 -164 236
-326 470 -162 234 -314 452 -338 485 l-42 60 -617 1 c-435 0 -617 -3 -617 -11z"/>
<path d="M193 4358 c226 -296 431 -563 436 -568 3 -3 33 -41 66 -85 33 -44
224 -294 426 -555 201 -262 384 -500 406 -530 56 -75 152 -199 185 -241 24
-30 299 -388 368 -479 20 -27 81 -105 128 -165 4 -5 45 -59 92 -120 152 -199
294 -384 760 -989 30 -40 95 -125 144 -189 49 -64 90 -117 92 -117 2 0 -5 19
-16 43 -17 37 -530 1210 -615 1407 -51 118 -245 561 -260 595 -16 34 -141 322
-190 435 -18 41 -41 95 -52 120 -11 25 -58 131 -103 235 -45 105 -91 210 -102
235 -12 24 -76 173 -145 330 -68 157 -133 305 -144 330 -11 25 -57 131 -103
235 l-82 190 -693 3 -692 2 94 -122z"/>
<path d="M1695 4445 c8 -19 22 -52 31 -72 25 -59 40 -92 78 -176 20 -44 36
-81 36 -83 0 -3 9 -24 19 -47 11 -23 42 -96 71 -162 28 -66 60 -138 70 -160
10 -22 60 -134 110 -250 50 -115 97 -223 105 -240 7 -16 102 -232 210 -480
108 -247 207 -474 220 -503 14 -29 25 -55 25 -57 0 -2 11 -28 24 -57 13 -29
110 -251 216 -493 105 -242 200 -458 210 -480 10 -22 42 -94 70 -160 29 -66
60 -138 70 -160 10 -22 32 -74 50 -115 18 -41 44 -100 57 -130 36 -80 47 -107
83 -190 18 -41 33 -76 34 -77 2 -2 13 23 26 55 13 31 41 94 62 140 21 46 38
85 38 87 0 4 110 255 146 333 13 28 36 80 50 115 14 34 37 87 51 117 14 30 44
100 68 155 56 131 333 764 345 790 5 11 44 99 86 195 102 236 99 229 122 280
10 25 144 331 297 680 152 349 285 653 295 675 22 50 187 427 207 473 l13 32
-1805 0 -1805 0 15 -35z"/>
<path d="M5464 4423 c-14 -32 -46 -105 -71 -163 -51 -119 -61 -143 -96 -220
-14 -30 -80 -181 -147 -335 -67 -154 -128 -293 -135 -310 -8 -16 -77 -175
-154 -351 -77 -177 -150 -343 -162 -370 -26 -60 -30 -69 -118 -274 -40 -91
-76 -174 -81 -185 -5 -11 -18 -40 -28 -65 -11 -25 -29 -65 -40 -90 -11 -25
-61 -139 -112 -255 -50 -115 -98 -223 -105 -240 -7 -16 -84 -192 -171 -390
-86 -198 -166 -380 -177 -405 -11 -25 -21 -49 -23 -55 -4 -14 -168 -385 -184
-416 -23 -45 23 12 405 506 81 105 167 215 191 245 35 44 576 739 654 840 22
29 281 360 316 405 43 56 856 1100 877 1128 12 16 27 34 32 40 6 7 59 75 118
152 60 77 119 154 132 170 14 17 63 80 110 140 47 61 97 126 113 145 15 19 85
109 155 200 70 91 135 173 143 183 7 9 14 19 14 22 0 3 -322 5 -715 5 l-715 0
-26 -57z"/>
</g>
</svg>
