<?xml version="1.0" standalone="no"?>
<!DOCTYPE svg PUBLIC "-//W3C//DTD SVG 20010904//EN"
 "http://www.w3.org/TR/2001/REC-SVG-20010904/DTD/svg10.dtd">
<svg version="1.0" xmlns="http://www.w3.org/2000/svg"
 width="700.000000pt" height="700.000000pt" viewBox="0 0 700.000000 700.000000"
 preserveAspectRatio="xMidYMid meet">
<metadata>
Created by potrace 1.11, written by Peter Selinger 2001-2013
</metadata>
<g transform="translate(0.000000,700.000000) scale(0.100000,-0.100000)"
fill="#000000" stroke="none">
<path d="M1127 5350 c-633 -946 -717 -1073 -717 -1079 0 -3 266 -6 591 -6
l591 0 84 144 c46 79 84 146 84 148 0 2 8 16 19 31 15 22 119 200 257 439 11
18 107 182 214 365 107 183 198 339 201 348 6 14 -45 16 -523 16 l-529 0 -272
-406z"/>
<path d="M2838 5720 c-11 -19 -29 -48 -38 -65 -10 -16 -111 -190 -225 -385
-115 -195 -223 -380 -240 -410 -17 -30 -102 -175 -188 -322 -87 -147 -157
-269 -157 -270 0 -2 668 -4 1485 -4 817 0 1485 2 1485 3 0 3 -177 307 -211
363 -7 12 -392 671 -469 805 -10 17 -56 95 -103 175 l-85 145 -616 0 -617 1
-21 -36z"/>
<path d="M4490 5753 c0 -2 10 -20 23 -41 13 -20 27 -44 30 -52 4 -8 16 -28 26
-45 10 -16 57 -95 103 -175 47 -80 221 -377 386 -660 l302 -515 615 0 c496 -1
615 2 611 12 -3 7 -35 55 -71 107 -110 160 -544 780 -557 798 -7 9 -80 114
-163 233 -82 119 -171 245 -196 278 l-46 62 -532 0 c-292 1 -531 -1 -531 -2z"/>
<path d="M483 3920 l-43 -5 36 -45 c20 -25 68 -88 107 -140 39 -52 74 -97 77
-100 3 -3 57 -75 122 -160 64 -85 154 -204 200 -265 46 -60 147 -193 224 -295
378 -497 744 -978 832 -1094 53 -70 104 -136 112 -146 8 -10 24 -31 35 -46 11
-15 79 -105 150 -199 72 -94 143 -188 160 -210 16 -22 35 -47 42 -55 10 -12
410 -539 521 -685 24 -33 22 -18 -8 50 -10 22 -30 69 -45 105 -15 36 -36 85
-47 109 -11 25 -64 147 -118 271 -54 124 -107 246 -118 271 -10 24 -90 208
-177 409 -87 201 -238 549 -337 775 -98 225 -178 415 -178 422 0 7 -4 13 -10
13 -5 0 -10 7 -10 15 0 8 -4 23 -10 33 -5 9 -55 123 -111 252 -55 129 -109
255 -120 280 -11 25 -59 134 -107 244 l-87 199 -525 1 c-289 0 -544 -1 -567
-4z"/>
<path d="M1955 3920 c-2 -4 64 -165 109 -265 23 -50 52 -116 86 -195 18 -41
38 -88 46 -105 7 -16 65 -151 130 -300 64 -148 147 -341 185 -428 38 -86 69
-159 69 -161 0 -3 13 -33 29 -68 16 -35 88 -200 161 -368 234 -539 331 -764
345 -795 8 -16 89 -203 180 -415 92 -212 170 -391 174 -398 5 -9 21 18 46 75
20 48 49 113 62 143 14 30 52 118 85 195 33 77 71 165 85 195 14 30 29 64 33
75 8 20 459 1062 485 1120 7 17 39 89 70 160 54 125 68 156 100 228 8 18 43
100 78 183 35 82 124 286 197 454 73 168 161 373 197 455 36 83 71 163 79 179
8 16 12 31 9 34 -6 6 -3036 8 -3040 2z"/>
<path d="M5388 3922 c-9 -2 -41 -62 -78 -150 -35 -81 -77 -176 -92 -212 -42
-95 -41 -91 -113 -260 -37 -85 -72 -168 -80 -185 -35 -79 -132 -302 -219 -505
-54 -124 -104 -238 -111 -255 -32 -72 -318 -732 -325 -750 -4 -11 -19 -45 -33
-75 -13 -30 -113 -260 -222 -510 -108 -250 -206 -475 -217 -500 -10 -25 -15
-40 -10 -35 6 6 122 154 259 330 305 392 355 457 368 472 15 18 17 21 170 218
76 99 142 182 145 185 3 3 26 32 51 65 25 33 158 204 295 380 138 176 355 455
484 620 128 165 258 332 289 371 31 39 83 105 116 148 33 43 105 135 160 205
55 70 110 141 122 157 12 16 31 40 42 54 140 177 180 230 169 231 -43 2 -1157
3 -1170 1z"/>
</g>
</svg>
