<svg xmlns="http://www.w3.org/2000/svg" width="155.422" height="143.063" viewBox="0 0 155.422 143.063">
  <g id="Group_18" data-name="Group 18" transform="translate(-101 -1460.286)">
    <path id="heart" d="M70.369,36.63c-8.343-7.11-20.75-5.831-28.408,2.07l-3,3.09-3-3.09c-7.642-7.9-20.065-9.18-28.408-2.07a21.86,21.86,0,0,0-1.507,31.65L35.507,98.7a4.773,4.773,0,0,0,6.9,0L71.861,68.281A21.847,21.847,0,0,0,70.369,36.63Z" transform="translate(139.706 1428.319)" fill="#ab2d2e"/>
    <path id="Union_2" data-name="Union 2" d="M74.741,60.744H0V20.669H38.1l2.768-10.33A8.985,8.985,0,0,1,49.749,2.7h55.967a8.983,8.983,0,0,1,0,17.966h-19.5v8.465h27.373l26.5-26.5a8.982,8.982,0,0,1,12.7,12.7L120.545,47.58a9,9,0,0,1-1.753,1.367l.063.235-1.1.294a8.974,8.974,0,0,1-2.517.674L76.7,60.478v.266h-.992l-.9.241Z" transform="translate(101 1542.364)" fill="#efd9bc"/>
  </g>
</svg>
