<svg xmlns="http://www.w3.org/2000/svg" width="120.641" height="120.641" viewBox="0 0 120.641 120.641">
  <path id="iconmonstr-user-8" d="M98.021,75.4a22.62,22.62,0,1,0,22.62,22.62A22.628,22.628,0,0,0,98.021,75.4Zm12.567,25.134H100.534v10.053H95.508V100.534H85.454V95.508H95.508V85.454h5.027V95.508h10.053ZM74.5,120.641H.025L0,114.4c0-12.667,1-19.981,15.975-23.44,16.915-3.906,33.619-7.4,25.586-22.208C17.769,24.877,34.775,0,60.321,0c33.935,0,37.731,38.178,18.3,68.76C72.123,78.97,65.347,87.007,65.347,98.021A32.543,32.543,0,0,0,74.5,120.641Z" fill="#23a692"/>
</svg>
