<?xml version="1.0" encoding="utf-8"?>
<!-- Generator: Adobe Illustrator 16.0.0, SVG Export Plug-In . SVG Version: 6.00 Build 0)  -->
<!DOCTYPE svg PUBLIC "-//W3C//DTD SVG 1.1//EN" "http://www.w3.org/Graphics/SVG/1.1/DTD/svg11.dtd">
<svg version="1.1" id="Layer_1" xmlns="http://www.w3.org/2000/svg" xmlns:xlink="http://www.w3.org/1999/xlink" x="0px" y="0px"
	 width="620px" height="620px" viewBox="0 0 620 620" enable-background="new 0 0 620 620" xml:space="preserve">
<path fill="#FFFFFF" d="M310.069,153.039c-86.882,0-156.962,70.08-156.962,156.961s70.08,156.962,156.962,156.962
	c86.881,0,156.961-70.08,156.961-156.962S396.95,153.039,310.069,153.039z M310.069,412.046
	c-56.146,0-102.045-45.765-102.045-102.046c0-56.282,45.763-102.045,102.045-102.045c56.281,0,102.044,45.763,102.044,102.045
	C412.113,366.281,366.214,412.046,310.069,412.046L310.069,412.046z M510.062,146.618c0,20.354-16.395,36.61-36.611,36.61
	c-20.354,0-36.609-16.393-36.609-36.61c0-20.218,16.394-36.611,36.609-36.611C493.668,110.007,510.062,126.4,510.062,146.618z
	 M614.02,183.776c-2.321-49.042-13.522-92.483-49.451-128.274C528.777,19.711,485.337,8.509,436.295,6.05
	c-50.544-2.869-202.042-2.869-252.586,0C134.804,8.372,91.363,19.574,55.435,55.365C19.506,91.156,8.44,134.597,5.981,183.639
	c-2.869,50.544-2.869,202.042,0,252.585c2.322,49.042,13.524,92.483,49.452,128.274c35.928,35.791,79.232,46.993,128.274,49.452
	c50.545,2.867,202.042,2.867,252.586,0c49.042-2.322,92.482-13.524,128.273-49.452c35.791-35.791,46.992-79.232,49.451-128.274
	C616.888,385.681,616.888,234.32,614.02,183.776L614.02,183.776z M548.721,490.458c-10.654,26.774-31.283,47.402-58.193,58.193
	c-40.3,15.982-135.924,12.295-180.458,12.295s-140.296,3.553-180.458-12.295c-26.775-10.654-47.403-31.281-58.195-58.193
	C55.433,450.159,59.122,354.534,59.122,310S55.57,169.705,71.416,129.542c10.655-26.775,31.283-47.402,58.195-58.194
	c40.299-15.983,135.924-12.295,180.458-12.295c44.533,0,140.294-3.552,180.458,12.295c26.773,10.655,47.401,31.283,58.193,58.194
	c15.983,40.299,12.295,135.924,12.295,180.458S564.703,450.296,548.721,490.458z"/>
</svg>
