<svg xmlns="http://www.w3.org/2000/svg" width="134.711" height="134.711" viewBox="0 0 134.711 134.711">
  <path id="iconmonstr-share-1" d="M28.065,39.291A28.065,28.065,0,1,1,0,67.355,28.068,28.068,0,0,1,28.065,39.291Zm62.427,67.72a22.15,22.15,0,0,0-.685,5.248A22.626,22.626,0,1,0,95.785,97.11l-30.8-16.429a39.14,39.14,0,0,1-5.293,9.9l30.8,16.429Zm44.219-84.559a22.452,22.452,0,0,0-44.9,0,22.15,22.15,0,0,0,.685,5.248l-30.8,16.429a38.869,38.869,0,0,1,5.293,9.9L95.785,37.6a22.385,22.385,0,0,0,38.926-15.149Z" fill="#23a692"/>
</svg>
