<?xml version="1.0" encoding="utf-8"?>
<!-- Generator: Adobe Illustrator 16.0.0, SVG Export Plug-In . SVG Version: 6.00 Build 0)  -->
<!DOCTYPE svg PUBLIC "-//W3C//DTD SVG 1.1//EN" "http://www.w3.org/Graphics/SVG/1.1/DTD/svg11.dtd">
<svg version="1.1" id="Layer_1" xmlns="http://www.w3.org/2000/svg" xmlns:xlink="http://www.w3.org/1999/xlink" x="0px" y="0px"
	 width="620px" height="536px" viewBox="0 43.5 620 536" enable-background="new 0 43.5 620 536" xml:space="preserve">
<path fill="#FFFFFF" d="M553.092,186.848c0.391,5.436,0.391,10.874,0.391,16.31c0,165.812-126.205,356.87-356.872,356.87
	c-71.063,0-137.078-20.582-192.609-56.309c10.097,1.164,19.804,1.554,30.289,1.554c58.636,0,112.614-19.805,155.718-53.589
	c-55.142-1.166-101.353-37.277-117.274-86.983c7.767,1.164,15.533,1.939,23.688,1.939c11.261,0,22.523-1.555,33.007-4.271
	C71.958,350.72,28.853,300.238,28.853,239.271v-1.554c16.697,9.32,36.115,15.146,56.695,15.92
	C51.764,231.115,29.63,192.671,29.63,149.179c0-23.299,6.212-44.657,17.085-63.296c61.744,76.111,154.554,125.816,258.624,131.253
	c-1.941-9.32-3.107-19.027-3.107-28.735c0-69.123,55.92-125.429,125.43-125.429c36.113,0,68.73,15.146,91.645,39.609
	c28.35-5.436,55.529-15.921,79.607-30.289c-9.322,29.125-29.125,53.589-55.145,69.121c25.24-2.717,49.705-9.708,72.229-19.415
	C598.916,146.851,577.557,168.984,553.092,186.848L553.092,186.848z"/>
</svg>
