<?xml version="1.0" encoding="utf-8"?>
<!-- Generator: Adobe Illustrator 16.0.0, SVG Export Plug-In . SVG Version: 6.00 Build 0)  -->
<!DOCTYPE svg PUBLIC "-//W3C//DTD SVG 1.1//EN" "http://www.w3.org/Graphics/SVG/1.1/DTD/svg11.dtd">
<svg version="1.1" id="Layer_1" xmlns="http://www.w3.org/2000/svg" xmlns:xlink="http://www.w3.org/1999/xlink" x="0px" y="0px"
	 width="620px" height="450px" viewBox="0 87.5 620 450" enable-background="new 0 87.5 620 450" xml:space="preserve">
<path fill="#FFFFFF" d="M588.009,169.838c-6.674-25.128-26.337-44.918-51.302-51.634C491.455,106,310,106,310,106
	s-181.454,0-226.707,12.204c-24.966,6.717-44.628,26.506-51.302,51.634c-12.125,45.546-12.125,140.574-12.125,140.574
	s0,95.028,12.125,140.574c6.673,25.128,26.336,44.094,51.302,50.81C128.546,514,310,514,310,514s181.454,0,226.707-12.204
	c24.965-6.716,44.628-25.682,51.302-50.81c12.125-45.546,12.125-140.574,12.125-140.574S600.134,215.384,588.009,169.838z
	 M250.654,396.69V224.134l151.662,86.28L250.654,396.69L250.654,396.69z"/>
</svg>
